<?xml version="1.0" encoding="UTF-8"?>
<svg width="201px" height="232px" viewBox="0 0 201 232" version="1.1" xmlns="http://www.w3.org/2000/svg" xmlns:xlink="http://www.w3.org/1999/xlink">
    <defs>
        <linearGradient x1="50%" y1="0%" x2="50%" y2="100%" id="linearGradient-1">
            <stop stop-color="#0094E2" offset="0%"></stop>
            <stop stop-color="#59D5FF" offset="100%"></stop>
        </linearGradient>
    </defs>
    <g id="Symbols" stroke="none" stroke-width="1" fill="none" fill-rule="evenodd">
        <g id="cloud">
            <g id="icon/cloud">
                <polygon id="Polygon-Copy" fill="url(#linearGradient-1)" points="100.458947 0 200.917894 58 200.917894 174 100.458947 232 3.55271368e-14 174 -3.01980663e-14 58"></polygon>
                <path d="M124.511719,93.640625 C131.673213,94.4218789 137.711564,97.4166406 142.626953,102.625 C147.542342,107.833359 150,113.985642 150,121.082031 C150,124.532569 149.479172,127.917952 148.4375,131.238281 C147.395828,134.55861 145.914723,137.6022 143.994141,140.369141 C142.073558,143.136082 139.567073,145.382153 136.474609,147.107422 C133.382146,148.832691 129.947936,149.760416 126.171875,149.890625 L119.042969,149.890625 C118.19661,149.890625 117.464196,149.581383 116.845703,148.962891 C116.22721,148.344398 115.917969,147.611983 115.917969,146.765625 C115.917969,145.919267 116.22721,145.186852 116.845703,144.568359 C117.464196,143.949867 118.19661,143.640625 119.042969,143.640625 L126.171875,143.640625 C129.622413,143.640625 132.731106,142.501313 135.498047,140.222656 C138.264988,137.943999 140.364576,135.09572 141.796875,131.677734 C143.229174,128.259749 143.945312,124.727883 143.945312,121.082031 C143.945312,115.287731 141.780621,110.307312 137.451172,106.140625 C133.121723,101.973938 128.027373,99.8580732 122.167969,99.7929688 L119.921875,99.6953125 L119.238281,97.546875 C115.852848,86.5442158 108.333392,81.0429688 96.6796875,81.0429688 C91.6015371,81.0429688 87.1093945,82.1985562 83.203125,84.5097656 C79.2968555,86.8209751 76.3020937,89.9947715 74.21875,94.03125 C72.1354063,98.0677285 71.09375,102.624975 71.09375,107.703125 L71.1914062,107.703125 L71.3867188,110.632812 L68.5546875,111.121094 C65.1041494,111.707034 62.1744912,113.562484 59.765625,116.6875 C57.3567588,119.812516 56.1523438,123.328105 56.1523438,127.234375 C56.1523438,131.66148 57.6334487,135.502588 60.5957031,138.757812 C63.5579575,142.013037 67.0572715,143.640625 71.09375,143.640625 L80.078125,143.640625 C80.5338564,143.640625 80.9570293,143.722004 81.3476562,143.884766 C81.7382832,144.047527 82.0638008,144.275389 82.3242188,144.568359 C82.5846367,144.86133 82.7962231,145.186847 82.9589844,145.544922 C83.1217456,145.902997 83.203125,146.309894 83.203125,146.765625 C83.203125,147.611983 82.9101592,148.344398 82.3242188,148.962891 C81.7382783,149.581383 80.9895879,149.890625 80.078125,149.890625 L71.09375,149.890625 C65.3645547,149.890625 60.4166875,147.644554 56.25,143.152344 C52.0833125,138.660134 50,133.354197 50,127.234375 C50,122.221329 51.3997256,117.712911 54.1992188,113.708984 C56.9987119,109.705058 60.5794053,106.986986 64.9414062,105.554688 C65.3320332,99.7603877 66.8782417,94.5358306 69.5800781,89.8808594 C72.2819146,85.2258882 75.9928149,81.5475396 80.7128906,78.8457031 C85.4329663,76.1438667 90.7551787,74.7929688 96.6796875,74.7929688 C103.580764,74.7929688 109.391252,76.4531084 114.111328,79.7734375 C118.831404,83.0937666 122.298166,87.7161162 124.511719,93.640625 Z M102.34375,118.542969 L113.867188,131.238281 C114.322919,131.694013 114.550781,132.231117 114.550781,132.849609 C114.550781,133.468102 114.322919,134.037758 113.867188,134.558594 L113.085938,135.046875 C112.630206,135.502606 112.109378,135.681641 111.523438,135.583984 C110.937497,135.486328 110.416669,135.209638 109.960938,134.753906 L103.125,127.136719 L103.125,158.582031 C103.125,159.493494 102.815758,160.242185 102.197266,160.828125 C101.578773,161.414065 100.830083,161.707031 99.9511719,161.707031 C99.0722612,161.707031 98.3398467,161.414065 97.7539062,160.828125 C97.1679658,160.242185 96.875,159.493494 96.875,158.582031 L96.875,127.136719 L90.234375,134.558594 C89.7135391,135.014325 89.1601592,135.291015 88.5742188,135.388672 C87.9882783,135.486329 87.4674502,135.307294 87.0117188,134.851562 L86.2304688,134.363281 C85.7747373,133.842445 85.546875,133.27279 85.546875,132.654297 C85.546875,132.035804 85.7747373,131.4987 86.2304688,131.042969 L97.5585938,118.542969 L97.5585938,118.445313 L98.3398438,117.664063 C98.7955752,117.208331 99.3326792,116.980469 99.9511719,116.980469 C100.569665,116.980469 101.106769,117.208331 101.5625,117.664063 L102.34375,118.445313 L102.34375,118.542969 Z" id="" fill="#FFFFFF"></path>
            </g>
        </g>
    </g>
</svg>
