<?xml version="1.0" encoding="UTF-8"?>
<svg width="50px" height="50px" viewBox="0 0 50 50" version="1.1" xmlns="http://www.w3.org/2000/svg" xmlns:xlink="http://www.w3.org/1999/xlink">
    <defs>
        <ellipse id="path-1" cx="38.8169737" cy="11.8366556" rx="2.65321407" ry="2.63964485"></ellipse>
        <filter x="-37.7%" y="-56.8%" width="175.4%" height="175.8%" filterUnits="objectBoundingBox" id="filter-2">
            <feOffset dx="0" dy="-1" in="SourceAlpha" result="shadowOffsetOuter1"></feOffset>
            <feGaussianBlur stdDeviation="0.5" in="shadowOffsetOuter1" result="shadowBlurOuter1"></feGaussianBlur>
            <feColorMatrix values="0 0 0 0 0.0509803922   0 0 0 0 0   0 0 0 0 0  0 0 0 0.3 0" type="matrix" in="shadowBlurOuter1"></feColorMatrix>
        </filter>
        <ellipse id="path-3" cx="2.72422466" cy="11.2907437" rx="2.6080255" ry="2.5946874"></ellipse>
        <filter x="-38.3%" y="-19.3%" width="176.7%" height="177.1%" filterUnits="objectBoundingBox" id="filter-4">
            <feOffset dx="0" dy="1" in="SourceAlpha" result="shadowOffsetOuter1"></feOffset>
            <feGaussianBlur stdDeviation="0.5" in="shadowOffsetOuter1" result="shadowBlurOuter1"></feGaussianBlur>
            <feColorMatrix values="0 0 0 0 0.0501966412   0 0 0 0 0   0 0 0 0 0  0 0 0 0.296818388 0" type="matrix" in="shadowBlurOuter1"></feColorMatrix>
        </filter>
        <ellipse id="path-5" cx="38.8169737" cy="11.6182908" rx="2.65321407" ry="2.63964485"></ellipse>
        <filter x="-37.7%" y="-56.8%" width="175.4%" height="175.8%" filterUnits="objectBoundingBox" id="filter-6">
            <feOffset dx="0" dy="-1" in="SourceAlpha" result="shadowOffsetOuter1"></feOffset>
            <feGaussianBlur stdDeviation="0.5" in="shadowOffsetOuter1" result="shadowBlurOuter1"></feGaussianBlur>
            <feColorMatrix values="0 0 0 0 0.0509803922   0 0 0 0 0   0 0 0 0 0  0 0 0 0.3 0" type="matrix" in="shadowBlurOuter1"></feColorMatrix>
        </filter>
    </defs>
    <g id="logo" stroke="none" stroke-width="1" fill="none" fill-rule="evenodd">
        <g id="easeglass">
            <g transform="translate(-1.000000, 0.000000)">
                <g id="Group-5">
                    <g id="Group-4" transform="translate(5.125857, 20.787640)">
                        <path d="M20.7350939,4.28348362 C22.8764554,1.66945486 26.1383507,0 29.7921725,0 C36.2417622,0 41.4701877,5.20168599 41.4701877,11.6182908 C41.4701877,18.0348957 36.2417622,23.2365817 29.7921725,23.2365817 C26.1383507,23.2365817 22.8764554,21.5671268 20.7350939,18.9530981 C18.5937323,21.5671268 15.331837,23.2365817 11.6780152,23.2365817 C5.22842549,23.2365817 0,18.0348957 0,11.6182908 C0,5.20168599 5.22842549,0 11.6780152,0 C15.331837,0 18.5937323,1.66945486 20.7350939,4.28348362 Z M11.6780152,17.9958269 C15.2183372,17.9958269 18.0883353,15.1405068 18.0883353,11.6182908 C18.0883353,8.09607491 15.2183372,5.24075474 11.6780152,5.24075474 C8.13769315,5.24075474 5.26769508,8.09607491 5.26769508,11.6182908 C5.26769508,15.1405068 8.13769315,17.9958269 11.6780152,17.9958269 Z M29.7921725,17.9958269 C33.3324946,17.9958269 36.2024926,15.1405068 36.2024926,11.6182908 C36.2024926,8.09607491 33.3324946,5.24075474 29.7921725,5.24075474 C26.2518505,5.24075474 23.3818524,8.09607491 23.3818524,11.6182908 C23.3818524,15.1405068 26.2518505,17.9958269 29.7921725,17.9958269 Z" id="Combined-Shape" fill="#CBCBCB"></path>
                        <g id="Group-2" transform="translate(0.090377, 0.000000)" fill="#60BFE4">
                            <path d="M20.6963608,4.27738071 C22.3348507,6.27753784 23.3172973,8.83071829 23.3172973,11.6121879 C23.3172973,14.3936576 22.3348507,16.946838 20.6963608,18.9469951 C19.0578709,16.946838 18.0754243,14.3936576 18.0754243,11.6121879 C18.0754243,8.83071829 19.0578709,6.27753784 20.6963608,4.27738071 Z" id="Combined-Shape-Copy-5"></path>
                            <path d="M1.74608056e-06,11.6247133 C5.82076397e-07,11.6225726 -1.13686838e-13,11.6204318 -1.13686838e-13,11.6182908 C-1.13686838e-13,5.20168599 5.22842549,0 11.6780152,0 C15.331837,0 18.5937323,1.66945486 20.7350939,4.28348362 C19.096604,6.28364075 18.1141573,8.8368212 18.1141573,11.6182908 C18.1141573,11.6204318 18.1141579,11.6225726 18.1141591,11.6247133 L18.0883324,11.6247133 C18.0883342,11.6225727 18.0883353,11.6204319 18.0883353,11.6182908 C18.0883353,8.09607491 15.2183372,5.24075474 11.6780152,5.24075474 C8.13769315,5.24075474 5.26769508,8.09607491 5.26769508,11.6182908 C5.26769508,11.6204319 5.26769614,11.6225727 5.26769826,11.6247133 L1.6206163e-06,11.6247133 Z" id="Combined-Shape"></path>
                            <path d="M20.6447185,23.1723567 C20.6447173,23.170216 20.6447167,23.1680752 20.6447167,23.1659342 C20.6447167,16.7493294 25.8731422,11.5476434 32.3227319,11.5476434 C35.9765537,11.5476434 39.238449,13.2170983 41.3798106,15.831127 C39.7413207,17.8312842 38.7588741,20.3844646 38.7588741,23.1659342 C38.7588741,23.1680752 38.7588747,23.170216 38.7588758,23.1723567 L38.7330491,23.1723567 C38.733051,23.1702162 38.733052,23.1680753 38.733052,23.1659342 C38.733052,19.6437183 35.863054,16.7883981 32.3227319,16.7883981 C28.7824099,16.7883981 25.9124118,19.6437183 25.9124118,23.1659342 C25.9124118,23.1680753 25.9124129,23.1702162 25.912415,23.1723567 L20.6447184,23.1723567 Z" id="Combined-Shape-Copy-4" transform="translate(31.012264, 17.360000) scale(-1, -1) translate(-31.012264, -17.360000) "></path>
                            <path d="M26.2995213,0.498070192 L26.2995213,6.20677072 C24.488094,7.33369734 23.2832042,9.33589393 23.2832042,11.6180684 C23.2832042,11.6202094 23.2832052,11.6223503 23.2832074,11.6244909 L18.0155107,11.6244909 C18.0155097,11.6223502 18.0155091,11.6202093 18.0155091,11.6180684 C18.0155091,6.37585652 21.5052201,1.9445419 26.2995213,0.498070192 Z" id="Combined-Shape"></path>
                        </g>
                        <g id="Oval-2-Copy">
                            <use fill="black" fill-opacity="1" filter="url(#filter-2)" xlink:href="#path-1"></use>
                            <use fill="#60BFE4" fill-rule="evenodd" xlink:href="#path-1"></use>
                        </g>
                    </g>
                    <g id="Group-3" transform="translate(20.921889, 24.616466) rotate(-240.000000) translate(-20.921889, -24.616466) translate(-0.078111, 12.616466)">
                        <path d="M11.6780152,23.2365817 C5.22842549,23.2365817 0,18.0348957 0,11.6182908 C0,5.20168599 5.22842549,0 11.6780152,0 C18.1276049,0 23.3560304,5.20168599 23.3560304,11.6182908 C23.3560304,18.0348957 18.1276049,23.2365817 11.6780152,23.2365817 Z M11.6780152,17.9958269 C15.2183372,17.9958269 18.0883353,15.1405068 18.0883353,11.6182908 C18.0883353,8.09607491 15.2183372,5.24075474 11.6780152,5.24075474 C8.13769315,5.24075474 5.26769508,8.09607491 5.26769508,11.6182908 C5.26769508,15.1405068 8.13769315,17.9958269 11.6780152,17.9958269 Z" id="Combined-Shape-Copy-6" fill="#CBCBCB"></path>
                        <g id="Group-2-Copy" transform="translate(0.090377, 0.000000)" fill="#60BFE4">
                            <path d="M20.6963608,4.27738071 C22.3348507,6.27753784 23.3172973,8.83071829 23.3172973,11.6121879 C23.3172973,14.3936576 22.3348507,16.946838 20.6963608,18.9469951 C19.0578709,16.946838 18.0754243,14.3936576 18.0754243,11.6121879 C18.0754243,8.83071829 19.0578709,6.27753784 20.6963608,4.27738071 Z" id="Combined-Shape-Copy-5"></path>
                            <path d="M1.74608056e-06,11.6247133 C5.82076397e-07,11.6225726 -1.13686838e-13,11.6204318 -1.13686838e-13,11.6182908 C-1.13686838e-13,5.20168599 5.22842549,0 11.6780152,0 C15.331837,0 18.5937323,1.66945486 20.7350939,4.28348362 C19.096604,6.28364075 18.1141573,8.8368212 18.1141573,11.6182908 C18.1141573,11.6204318 18.1141579,11.6225726 18.1141591,11.6247133 L18.0883324,11.6247133 C18.0883342,11.6225727 18.0883353,11.6204319 18.0883353,11.6182908 C18.0883353,8.09607491 15.2183372,5.24075474 11.6780152,5.24075474 C8.13769315,5.24075474 5.26769508,8.09607491 5.26769508,11.6182908 C5.26769508,11.6204319 5.26769614,11.6225727 5.26769826,11.6247133 L1.62061629e-06,11.6247133 Z" id="Combined-Shape"></path>
                            <path d="M20.6447185,23.1723567 C20.6447173,23.170216 20.6447167,23.1680752 20.6447167,23.1659342 C20.6447167,16.7493294 25.8731422,11.5476434 32.3227319,11.5476434 C35.9765537,11.5476434 39.238449,13.2170983 41.3798106,15.831127 C39.7413207,17.8312842 38.7588741,20.3844646 38.7588741,23.1659342 C38.7588741,23.1680752 38.7588747,23.170216 38.7588758,23.1723567 L38.7330491,23.1723567 C38.733051,23.1702162 38.733052,23.1680753 38.733052,23.1659342 C38.733052,19.6437183 35.863054,16.7883981 32.3227319,16.7883981 C28.7824099,16.7883981 25.9124118,19.6437183 25.9124118,23.1659342 C25.9124118,23.1680753 25.9124129,23.1702162 25.912415,23.1723567 L20.6447184,23.1723567 Z" id="Combined-Shape-Copy-4" transform="translate(31.012264, 17.360000) scale(-1, -1) translate(-31.012264, -17.360000) "></path>
                        </g>
                        <g id="Oval-2-Copy-2">
                            <use fill="black" fill-opacity="1" filter="url(#filter-4)" xlink:href="#path-3"></use>
                            <use fill="#60BFE4" fill-rule="evenodd" xlink:href="#path-3"></use>
                        </g>
                        <g id="Oval-2-Copy-3">
                            <use fill="black" fill-opacity="1" filter="url(#filter-6)" xlink:href="#path-5"></use>
                            <use fill="#60BFE4" fill-rule="evenodd" xlink:href="#path-5"></use>
                        </g>
                    </g>
                </g>
            </g>
        </g>
    </g>
</svg>
