<?xml version="1.0" encoding="UTF-8"?>
<svg width="201px" height="232px" viewBox="0 0 201 232" version="1.1" xmlns="http://www.w3.org/2000/svg" xmlns:xlink="http://www.w3.org/1999/xlink">
    <defs>
        <linearGradient x1="50%" y1="0%" x2="50%" y2="100%" id="linearGradient-1">
            <stop stop-color="#0094E2" offset="0%"></stop>
            <stop stop-color="#59D5FF" offset="100%"></stop>
        </linearGradient>
    </defs>
    <g id="Symbols" stroke="none" stroke-width="1" fill="none" fill-rule="evenodd">
        <g id="magnet">
            <g id="icon/Magnet">
                <polygon id="Polygon" fill="url(#linearGradient-1)" points="100.458947 0 200.917894 58 200.917894 174 100.458947 232 3.55271368e-14 174 -3.01980663e-14 58"></polygon>
                <path d="M143.75,131.304688 C143.75,137.294301 142.610688,143.007134 140.332031,148.443359 C138.053374,153.879584 134.960957,158.550762 131.054688,162.457031 C127.148418,166.363301 122.477241,169.48827 117.041016,171.832031 C111.604791,174.175793 105.924509,175.347656 100,175.347656 C95.9635215,175.347656 92.0573105,174.810552 88.28125,173.736328 C84.5051895,172.662104 81.0221514,171.180999 77.8320312,169.292969 C74.6419111,167.404938 71.6959771,165.11004 68.9941406,162.408203 C66.2923042,159.706367 64.0136812,156.744157 62.1582031,153.521484 C60.3027251,150.298812 58.8541719,146.783222 57.8125,142.974609 C56.7708281,139.165997 56.25,135.276062 56.25,131.304688 L56.25,78.2773438 C56.25,77.4309854 56.5429658,76.6985708 57.1289062,76.0800781 C57.7148467,75.4615854 58.4635371,75.1523438 59.375,75.1523438 L81.25,75.1523438 C82.1614629,75.1523438 82.9101533,75.4615854 83.4960938,76.0800781 C84.0820342,76.6985708 84.375,77.4309854 84.375,78.2773438 L84.375,129.839844 C84.375,134.592472 85.9537603,138.62889 89.1113281,141.949219 C92.268896,145.269548 96.1913828,146.929688 100.878906,146.929688 C105.436221,146.929688 109.03319,145.318375 111.669922,142.095703 C114.306654,138.873031 115.625,134.787785 115.625,129.839844 L115.625,78.2773438 C115.625,77.4309854 115.917966,76.6985708 116.503906,76.0800781 C117.089847,75.4615854 117.838537,75.1523438 118.75,75.1523438 L140.625,75.1523438 C141.536463,75.1523438 142.285153,75.4615854 142.871094,76.0800781 C143.457034,76.6985708 143.75,77.4309854 143.75,78.2773438 L143.75,131.304688 Z M137.5,81.4023438 L121.875,81.4023438 L121.875,94 L137.5,94 L137.5,81.4023438 Z M78.125,81.4023438 L62.5,81.4023438 L62.5,94 L78.125,94 L78.125,81.4023438 Z M100,169.097656 C105.07815,169.097656 109.944638,168.104828 114.599609,166.119141 C119.254581,164.133454 123.258447,161.447934 126.611328,158.0625 C129.964209,154.677066 132.617178,150.656924 134.570312,146.001953 C136.523447,141.346982 137.5,136.447942 137.5,131.304688 L137.5,100.25 L121.875,100.25 L121.875,129.839844 C121.875,134.201845 121.028654,138.140607 119.335938,141.65625 C117.643221,145.171893 115.185563,147.971344 111.962891,150.054688 C108.740218,152.138031 105.045594,153.179688 100.878906,153.179688 C94.498666,153.179688 89.1113501,150.91734 84.7167969,146.392578 C80.3222437,141.867816 78.125,136.350293 78.125,129.839844 L78.125,100.25 L62.5,100.25 L62.5,131.304688 C62.5,138.140659 64.1601396,144.4557 67.4804688,150.25 C70.8007979,156.0443 75.3417681,160.634098 81.1035156,164.019531 C86.8652632,167.404965 93.1640283,169.097656 100,169.097656 Z" id="Magnet---simple-line-icons" fill="#FFFFFF"></path>
            </g>
        </g>
    </g>
</svg>
