<?xml version="1.0" encoding="UTF-8"?>
<svg width="201px" height="232px" viewBox="0 0 201 232" version="1.1" xmlns="http://www.w3.org/2000/svg" xmlns:xlink="http://www.w3.org/1999/xlink">
    <defs>
        <linearGradient x1="50%" y1="0%" x2="50%" y2="100%" id="linearGradient-1">
            <stop stop-color="#0094E2" offset="0%"></stop>
            <stop stop-color="#59D5FF" offset="100%"></stop>
        </linearGradient>
    </defs>
    <g id="Symbols" stroke="none" stroke-width="1" fill="none" fill-rule="evenodd">
        <g id="shield">
            <g id="icon/shield">
                <polygon id="Polygon-Copy-2" fill="url(#linearGradient-1)" points="100.458947 0 200.917894 58 200.917894 174 100.458947 232 3.55271368e-14 174 -3.01980663e-14 58"></polygon>
                <path d="M138.671875,82.3125 C139.973965,83.5494854 140.625,85.079418 140.625,86.9023438 L140.625,102.527344 C140.625,108.712271 140.185551,114.522759 139.306641,119.958984 C138.42773,125.395209 137.272143,130.098938 135.839844,134.070312 C134.407545,138.041687 132.682302,141.720035 130.664062,145.105469 C128.645823,148.490902 126.64389,151.306629 124.658203,153.552734 C122.672516,155.798839 120.507824,157.833324 118.164062,159.65625 C115.820301,161.479176 113.76954,162.862625 112.011719,163.806641 C110.253897,164.750656 108.447275,165.580726 106.591797,166.296875 C104.736319,167.013024 103.450524,167.468749 102.734375,167.664062 C102.018226,167.859376 101.432294,167.989583 100.976562,168.054688 C100.585936,168.119792 100.227866,168.152344 99.9023438,168.152344 L99.3164062,168.152344 C99.1210928,168.152344 98.9257822,168.119792 98.7304688,168.054688 C98.0143193,167.924479 97.1028701,167.712892 95.9960938,167.419922 C94.8893174,167.126952 92.9850396,166.329434 90.2832031,165.027344 C87.5813667,163.725254 84.993502,162.179045 82.5195312,160.388672 C80.0455605,158.598298 77.3437646,155.961606 74.4140625,152.478516 C71.4843604,148.995425 68.9615991,145.089214 66.8457031,140.759766 C64.7298071,136.430317 62.9557363,130.945346 61.5234375,124.304688 C60.0911387,117.664029 59.375,110.404987 59.375,102.527344 L59.375,86.9023438 C59.375,85.1445225 60.0260352,83.6471416 61.328125,82.4101562 C61.9140654,81.8242158 62.5813765,81.3847671 63.3300781,81.0917969 C64.0787798,80.7988267 64.8437461,80.6523438 65.625,80.6523438 L66.015625,80.6523438 C66.0807295,80.6523438 66.145833,80.6686196 66.2109375,80.7011719 C66.276042,80.7337241 66.3899731,80.75 66.5527344,80.75 L68.6523438,80.75 C73.4049717,80.75 77.6041484,80.2942754 81.25,79.3828125 C82.2916719,79.1223945 83.349604,78.7480493 84.4238281,78.2597656 C85.4980522,77.7714819 86.5071567,77.2343779 87.4511719,76.6484375 C88.395187,76.0624971 89.3229121,75.4440137 90.234375,74.7929688 C91.1458379,74.1419238 91.9596318,73.4908887 92.6757812,72.8398438 C93.3919307,72.1887988 94.0266899,71.6191431 94.5800781,71.1308594 C95.1334663,70.6425757 95.572915,70.2356787 95.8984375,69.9101562 L96.3867188,69.421875 C96.9075547,69.031248 97.4609346,68.7545581 98.046875,68.5917969 C98.6328154,68.4290356 99.2512988,68.3476562 99.9023438,68.3476562 C101.139329,68.3476562 102.278641,68.7057256 103.320312,69.421875 C103.515626,69.552084 104.60611,70.4472573 106.591797,72.1074219 C108.577484,73.7675864 110.644521,75.2812432 112.792969,76.6484375 C114.941417,78.0156318 116.959626,78.9270811 118.847656,79.3828125 C122.493508,80.2942754 126.660133,80.75 131.347656,80.75 L133.642578,80.75 C133.740235,80.75 133.821614,80.7337241 133.886719,80.7011719 L133.984375,80.6523438 L134.375,80.6523438 C135.156254,80.6523438 135.92122,80.7988267 136.669922,81.0917969 C137.418624,81.3847671 138.085935,81.7916641 138.671875,82.3125 Z M134.375,102.527344 L134.375,86.9023438 L134.082031,86.9023438 C133.821613,86.9674482 133.430992,87 132.910156,87 L131.347656,87 C126.204401,87 121.516948,86.4791719 117.285156,85.4375 C114.746081,84.8515596 111.94663,83.5657651 108.886719,81.5800781 C105.826808,79.5943911 103.727219,78.0970103 102.587891,77.0878906 C101.448562,76.078771 100.553389,75.2487012 99.9023438,74.5976562 L97.5585938,76.84375 C95.9309814,78.3411533 93.701186,80.001293 90.8691406,81.8242188 C88.0370952,83.6471445 85.3515752,84.8515596 82.8125,85.4375 C78.580708,86.4791719 73.8607031,87 68.6523438,87 L66.2109375,87 C66.0807285,87 65.9667974,86.9837241 65.8691406,86.9511719 C65.7714839,86.9186196 65.6901045,86.9023438 65.625,86.9023438 L65.625,102.527344 C65.625,109.819047 66.2760352,116.508433 67.578125,122.595703 C68.8802148,128.682973 70.475251,133.695944 72.3632812,137.634766 C74.2513115,141.573587 76.5136587,145.105453 79.1503906,148.230469 C81.7871226,151.355484 84.1796768,153.715487 86.328125,155.310547 C88.4765732,156.905607 90.7389204,158.272781 93.1152344,159.412109 C95.4915483,160.551438 97.0865845,161.235025 97.9003906,161.462891 C98.7141968,161.690756 99.3815078,161.837239 99.9023438,161.902344 C105.110703,160.795567 110.351536,158.028668 115.625,153.601562 C128.125063,142.794217 134.375,125.769647 134.375,102.527344 Z M113.28125,102.039062 C113.671877,102.429689 113.932291,102.90169 114.0625,103.455078 C114.192709,104.008466 114.192709,104.54557 114.0625,105.066406 C113.932291,105.587242 113.671877,106.042967 113.28125,106.433594 L104.394531,115.320312 L113.28125,124.207031 C113.411459,124.33724 113.574218,124.532551 113.769531,124.792969 C114.550785,126.160163 114.388026,127.429682 113.28125,128.601562 C112.630205,129.187503 111.881515,129.480469 111.035156,129.480469 C110.188798,129.480469 109.440107,129.187503 108.789062,128.601562 L100,119.714844 L91.1132812,128.601562 C90.5273408,129.187503 89.7949263,129.480469 88.9160156,129.480469 C88.037105,129.480469 87.3046904,129.171227 86.71875,128.552734 C86.1328096,127.934242 85.8398438,127.201827 85.8398438,126.355469 C85.8398438,125.50911 86.1328096,124.792972 86.71875,124.207031 L95.6054688,115.320312 L86.71875,106.433594 C86.328123,106.042967 86.067709,105.587242 85.9375,105.066406 C85.807291,104.54557 85.807291,104.008466 85.9375,103.455078 C86.067709,102.90169 86.328123,102.429689 86.71875,102.039062 C87.3046904,101.453122 88.037105,101.160156 88.9160156,101.160156 C89.7949263,101.160156 90.5273408,101.453122 91.1132812,102.039062 L100,110.925781 L108.789062,102.039062 C109.440107,101.453122 110.188798,101.160156 111.035156,101.160156 C111.881515,101.160156 112.630205,101.453122 113.28125,102.039062 Z" id="Shield---simple-line-icons" fill="#FFFFFF"></path>
            </g>
        </g>
    </g>
</svg>
