<?xml version="1.0" encoding="UTF-8"?>
<svg width="1440px" height="426px" viewBox="0 0 1440 426" version="1.1" xmlns="http://www.w3.org/2000/svg" xmlns:xlink="http://www.w3.org/1999/xlink">
    <g id="aac4" stroke="none" stroke-width="1" fill="none" fill-rule="evenodd">
        <g id="Artboard">
            <g id="about-section" transform="translate(-12.000000, 116.000000)">
                <g id="wave-">
                    <path d="M0,233.12609 L55.1160333,223.944835 L116.196637,197.136165 L196.009744,129.908451 L252.335411,94.0520786 L310.835268,100.854279 L385.628295,165.490109 L429.465625,188.733447 L482.309053,197.136165 L531.064826,173.671859 C531.064826,173.671859 547.141963,155.530123 568.3133,129.908451 C583.263544,111.815581 600.103675,88.354463 618.474342,72.1166259 C638.43549,54.4729623 653.413027,30.7168553 670.867023,19.4906503 C700.499855,0.431160273 727.537378,0.00972282191 727.537378,0.00972282191 C727.537378,0.00972282191 747.298725,-0.794381399 769.00166,12.222628 C787.787448,23.4899878 806.814172,46.5374691 830.4844,72.1166259 C894.654828,141.462195 965.254958,253.532414 1018.0304,269.255012 C1029.1577,272.570001 1044.57487,280.013479 1060.29895,280.118227 C1073.81529,280.208267 1087.26353,273.572013 1101.80743,269.255012 C1131.39588,260.472401 1160.50723,240.12259 1190.60895,216.139326 C1237.69962,178.620281 1281.86047,130.955796 1321.60833,100.854279 C1336.02765,89.9343621 1348.65703,74.1111141 1362.34347,72.1166259 C1376.59157,70.0402877 1391.03669,55.4178733 1408.30638,47.5892902 C1453.85065,26.9434492 1505.41815,6.66198634 1522.71651,36.8992657 C1547.04827,79.4308549 1510.03013,233.12609 1510.03013,233.12609 L1510.03013,1082 L0,1082 L0,233.12609 Z" id="Rectangle-3" fill="#FFF"></path>
                    <path d="M1,228.892529 C140.279204,228.892536 190.852726,93.4175034 271.041539,93.4175034 C351.230352,93.4175034 370.912118,195.045472 471.414647,195.045476 C571.917176,195.045479 612.131731,-2.32650334e-06 728.292566,0 C844.4534,2.32650334e-06 916.286974,278.000003 1059.68854,278 C1203.0901,277.999997 1296.65341,25.7096897 1511,25.7096881" id="LIKES_GRAPH" stroke="#B6DDF3" stroke-width="12" stroke-linecap="round" stroke-linejoin="round"></path>
                </g>
            </g>
        </g>
    </g>
</svg>
