<?xml version="1.0" encoding="UTF-8"?>
<svg width="201px" height="232px" viewBox="0 0 201 232" version="1.1" xmlns="http://www.w3.org/2000/svg" xmlns:xlink="http://www.w3.org/1999/xlink">
    <defs>
        <linearGradient x1="50%" y1="0%" x2="50%" y2="100%" id="linearGradient-1">
            <stop stop-color="#0094E2" offset="0%"></stop>
            <stop stop-color="#59D5FF" offset="100%"></stop>
        </linearGradient>
    </defs>
    <g id="Symbols" stroke="none" stroke-width="1" fill="none" fill-rule="evenodd">
        <g id="speedometer">
            <g id="icon/speedometer">
                <polygon id="Polygon-Copy-3" fill="url(#linearGradient-1)" points="100.458947 0 200.917894 58 200.917894 174 100.458947 232 3.55271368e-14 174 -3.01980663e-14 58"></polygon>
                <path d="M119.384766,75.7207031 C125.53714,78.3574351 130.843077,81.9055767 135.302734,86.3652344 C139.762392,90.8248921 143.310534,96.1471045 145.947266,102.332031 C148.583998,108.516958 149.902344,114.962206 149.902344,121.667969 C149.902344,130.457075 147.802755,138.611291 143.603516,146.130859 C139.404276,153.650428 133.593787,159.688779 126.171875,164.246094 C125.651039,164.571616 125.097659,164.734375 124.511719,164.734375 C124.186196,164.734375 123.860679,164.669271 123.535156,164.539062 C123.209634,164.408854 122.900392,164.229819 122.607422,164.001953 C122.314452,163.774087 122.070313,163.529949 121.875,163.269531 C121.419269,162.488277 121.289062,161.690759 121.484375,160.876953 C121.679688,160.063147 122.135413,159.428388 122.851562,158.972656 C128.32034,155.587223 132.812482,151.290391 136.328125,146.082031 L133.203125,144.226562 C132.812498,144.031249 132.503256,143.770835 132.275391,143.445312 C132.047525,143.11979 131.86849,142.761721 131.738281,142.371094 C131.608072,141.980467 131.575521,141.57357 131.640625,141.150391 C131.705729,140.727211 131.835937,140.352866 132.03125,140.027344 C132.486981,139.24609 133.121741,138.741538 133.935547,138.513672 C134.749353,138.285806 135.546871,138.399737 136.328125,138.855469 L139.453125,140.613281 C141.796887,135.66534 143.164061,130.424507 143.554688,124.890625 L140.136719,124.890625 C139.29036,124.890625 138.557946,124.581383 137.939453,123.962891 C137.32096,123.344398 137.011719,122.611983 137.011719,121.765625 C137.011719,120.919267 137.32096,120.186852 137.939453,119.568359 C138.557946,118.949867 139.29036,118.640625 140.136719,118.640625 L143.554688,118.640625 C143.164061,112.976534 141.731783,107.638046 139.257812,102.625 L136.328125,104.285156 C136.067707,104.415365 135.807293,104.513021 135.546875,104.578125 C135.286457,104.643229 135.026043,104.675781 134.765625,104.675781 C134.244789,104.675781 133.740237,104.545574 133.251953,104.285156 C132.763669,104.024738 132.356772,103.634117 132.03125,103.113281 C131.835937,102.787759 131.705729,102.413414 131.640625,101.990234 C131.575521,101.567055 131.608072,101.160158 131.738281,100.769531 C131.86849,100.378904 132.047525,100.020835 132.275391,99.6953125 C132.503256,99.36979 132.812498,99.109376 133.203125,98.9140625 L136.132812,97.15625 C133.007797,92.5989355 129.134138,88.7252764 124.511719,85.5351562 L122.851562,88.4648438 C122.721354,88.7252617 122.542319,88.953124 122.314453,89.1484375 C122.086587,89.343751 121.858725,89.5065098 121.630859,89.6367188 C121.402994,89.7669277 121.158855,89.864583 120.898438,89.9296875 C120.63802,89.994792 120.377605,90.0273438 120.117188,90.0273438 L119.726562,90.0273438 C119.596354,90.0273438 119.466146,90.0110679 119.335938,89.9785156 C119.205729,89.9459634 119.075521,89.8971357 118.945312,89.8320312 L118.554688,89.6367188 C118.359374,89.5716143 118.196615,89.473959 118.066406,89.34375 C117.936197,89.213541 117.822266,89.083334 117.724609,88.953125 C117.626953,88.822916 117.529297,88.6764331 117.431641,88.5136719 C117.333984,88.3509106 117.252604,88.1881519 117.1875,88.0253906 C117.122396,87.8626294 117.073568,87.6835947 117.041016,87.4882812 C117.008463,87.2929678 116.992188,87.1139331 116.992188,86.9511719 C116.992188,86.7884106 117.008463,86.609376 117.041016,86.4140625 C117.073568,86.218749 117.122396,86.0397144 117.1875,85.8769531 C117.252604,85.7141919 117.317708,85.5351572 117.382812,85.3398438 L119.140625,82.4101562 C114.062475,79.9361855 108.691435,78.5039082 103.027344,78.1132812 L103.027344,82.0195312 C103.027344,82.9309941 102.734378,83.6796846 102.148438,84.265625 C101.562497,84.8515654 100.830083,85.1445312 99.9511719,85.1445312 C99.0722612,85.1445312 98.3235708,84.8515654 97.7050781,84.265625 C97.0865854,83.6796846 96.7773438,82.9309941 96.7773438,82.0195312 L96.7773438,78.1132812 C94.0429551,78.3736992 91.3574351,78.8456997 88.7207031,79.5292969 C86.0839712,80.212894 83.5286582,81.1406191 81.0546875,82.3125 L82.8125,85.3398438 C83.072918,85.7304707 83.2194009,86.1373677 83.2519531,86.5605469 C83.2845054,86.9837261 83.2519536,87.3743472 83.1542969,87.7324219 C83.0566401,88.0904966 82.8776055,88.4485659 82.6171875,88.8066406 C82.3567695,89.1647153 82.0638037,89.4414053 81.7382812,89.6367188 C81.2174453,89.8971367 80.6966172,90.0273438 80.1757812,90.0273438 C78.9387959,90.0273438 78.0273467,89.5065156 77.4414062,88.4648438 L75.6835938,85.4375 C71.0611748,88.5625156 67.1549639,92.4361748 63.9648438,97.0585938 L67.0898438,98.9140625 C67.8059932,99.3046895 68.2779937,99.9231729 68.5058594,100.769531 C68.7337251,101.61589 68.6197939,102.397132 68.1640625,103.113281 C67.5781221,104.154953 66.6992246,104.675781 65.5273438,104.675781 C64.9414033,104.675781 64.4205752,104.545574 63.9648438,104.285156 L60.8398438,102.429688 C58.3007686,107.507838 56.8359395,112.878878 56.4453125,118.542969 L59.8632812,118.542969 C60.7747441,118.542969 61.5234346,118.85221 62.109375,119.470703 C62.6953154,120.089196 62.9882812,120.82161 62.9882812,121.667969 C62.9882812,122.514327 62.6953154,123.246742 62.109375,123.865234 C61.5234346,124.483727 60.7747441,124.792969 59.8632812,124.792969 L56.4453125,124.792969 C56.640626,127.592462 57.0963506,130.32681 57.8125,132.996094 C58.5286494,135.665378 59.4726504,138.236967 60.6445312,140.710938 L63.9648438,138.855469 C64.6809932,138.399737 65.4622354,138.285806 66.3085938,138.513672 C67.1549521,138.741538 67.7897114,139.229814 68.2128906,139.978516 C68.6360698,140.727217 68.7337251,141.524735 68.5058594,142.371094 C68.2779937,143.217452 67.8059932,143.835936 67.0898438,144.226562 L63.7695312,146.179688 C67.2200693,151.257838 71.5820049,155.457015 76.8554688,158.777344 C77.5716182,159.233075 78.0273428,159.88411 78.2226562,160.730469 C78.4179697,161.576827 78.2877627,162.358069 77.8320312,163.074219 C77.3762998,163.790368 76.7252646,164.246093 75.8789062,164.441406 C75.0325479,164.63672 74.2513057,164.506513 73.5351562,164.050781 C66.1783486,159.428362 60.4329634,153.373735 56.2988281,145.886719 C52.1646929,138.399702 50.0976562,130.359418 50.0976562,121.765625 C50.0976562,114.994758 51.4160024,108.516958 54.0527344,102.332031 C56.6894663,96.1471045 60.2376079,90.8248921 64.6972656,86.3652344 C69.1569233,81.9055767 74.4628599,78.3574351 80.6152344,75.7207031 C86.7676089,73.0839712 93.2291328,71.765625 100,71.765625 C106.770867,71.765625 113.232391,73.0839712 119.384766,75.7207031 Z M123.046875,112 L106.152344,121.765625 C106.152344,123.458342 105.53386,124.923171 104.296875,126.160156 C103.05989,127.397142 101.595061,128.015625 99.9023438,128.015625 C98.7955674,128.015625 97.7539111,127.738935 96.7773438,127.185547 C95.8007764,126.632159 95.0358101,125.867192 94.4824219,124.890625 C93.9290337,123.914058 93.6523438,122.872401 93.6523438,121.765625 C93.6523438,120.072908 94.2708271,118.608079 95.5078125,117.371094 C96.7447979,116.134108 98.209627,115.515625 99.9023438,115.515625 C100.944016,115.515625 101.95312,115.808591 102.929688,116.394531 L119.921875,106.53125 C120.703129,106.140623 121.500647,106.059244 122.314453,106.287109 C123.128259,106.514975 123.763019,106.986976 124.21875,107.703125 C124.479168,108.223961 124.609375,108.744789 124.609375,109.265625 C124.609375,109.786461 124.479168,110.291013 124.21875,110.779297 C123.958332,111.267581 123.567711,111.674478 123.046875,112 Z" id="Speedometer---simple-line-icons" fill="#FFFFFF"></path>
            </g>
        </g>
    </g>
</svg>
